<svg xmlns="http://www.w3.org/2000/svg" viewBox="0 0 48 48"><g data-name="boy patient"><path fill="#db5669" d="M42,37.21V47H6V37.21A4,4,0,0,1,9.13,33.3l11.09-2.46a1,1,0,0,0,.78-1V27.36a7.38,7.38,0,0,0,6,0c0,2.29-.23,3.26.78,3.48L38.87,33.3A4,4,0,0,1,42,37.21Z"/><path fill="#f6ccaf" d="M28.77,26.42A8,8,0,0,1,16,20V13c2.1-.08,2.69-1.1,3.52-2.87,1.41,1.12,2.34.87,7.48.87a6.92,6.92,0,0,0,4.54-1.68A7.94,7.94,0,0,1,32,12c0,8.86,0,8,0,8.54A3.5,3.5,0,0,1,28.77,26.42Z"/><path fill="#ffdec7" d="M28.77,26.42A6,6,0,0,1,26,27a8,8,0,0,1-8-8V12.39a5.55,5.55,0,0,0,1.52-2.26A4,4,0,0,0,22,11c4.91,0,6.78.34,9.07-1.31h0a5.19,5.19,0,0,0,.46-.36A7.94,7.94,0,0,1,32,12c0,8.86,0,8,0,8.54A3.5,3.5,0,0,1,28.77,26.42Z"/><path fill="#ffdec7" d="M28.91,26.44a2,2,0,0,1-.34.12l.2-.14Z"/><path fill="#f26674" d="M42,37.21V45H11a3,3,0,0,1-3-3c0-8.47-.24-8.4,1.13-8.7,12.07-2.68,11.56-2.38,11.81-3.09.08-.22.06-.13.06-2.79a8,8,0,0,0,6,0c0,2.66,0,2.57.06,2.8.26.73-.07.46,11.81,3.09A4,4,0,0,1,42,37.21Z"/><path fill="#f6ccaf" d="M32 18h1.5a2.5 2.5 0 0 0 0-5H32zM16 13v5H14.5a2.5 2.5 0 0 1-2.29-3.5C12.92 12.78 14.63 13 16 13z"/><path fill="#ffdec7" d="M16,13v3c-1.36,0-3,.25-3.79-1.5C13,12.72,14.8,13,16,13Z"/><path fill="#edb996" d="M26,24a1.34,1.34,0,0,1-1-.59,1.48,1.48,0,0,0-2,0l-.29.3a1,1,0,0,1-1.42-1.42,3.56,3.56,0,0,1,5.42,0A1,1,0,0,1,26,24Z"/><path fill="#f26674" d="M35 30c-.53 0-.67-.26-1.71-1.29a1 1 0 0 1 1.42-1.42l1 1A1 1 0 0 1 35 30zM37.33 26.7a8.09 8.09 0 0 1-1.62-.4 1 1 0 0 1 .51-1.94l1.37.37A1 1 0 0 1 37.33 26.7zM36.33 23a1 1 0 0 1-.26-2l1.37-.37A1 1 0 0 1 38 22.64 8.54 8.54 0 0 1 36.33 23z"/><path fill="#a87e6b" d="M34,1c0,2.88.26,4.73-1.16,6.84A7,7,0,0,1,27,11c-4.84,0-6,.29-7.48-.87a4,4,0,0,1,.85-6.78C23.16,2.07,28.57,4.6,34,1Z"/><path fill="#be927c" d="M34,1c0,2.88.26,4.73-1.16,6.84C30.56,9.37,28.57,9,24,9a4,4,0,0,1-3.63-5.65C23.16,2.07,28.57,4.6,34,1Z"/><path fill="#a87e6b" d="M19.52,10.13C18.28,12.79,17.62,13,15,13V7.5a2.5,2.5,0,0,1,3.44-2.31A4,4,0,0,0,19.52,10.13Z"/><path fill="#be927c" d="M19.4,10c-1.52,1.63-3.4.86-3.4-.63V5.5a2.48,2.48,0,0,1,2.44-.31A4,4,0,0,0,19.4,10Z"/><rect width="7" height="4" x="6" y="43" fill="#f6ccaf"/><path fill="#ffdec7" d="M13,43v2H10a2,2,0,0,1-2-2Z"/><rect width="7" height="4" x="35" y="43" fill="#f6ccaf"/><path fill="#f6ccaf" d="M31.51,31.67l-2.35,2.25a7.45,7.45,0,0,1-10.32,0l-2.35-2.25c5.22-1.16,4.51-.33,4.51-4.25a8,8,0,0,0,6,0C27,31.36,26.3,30.51,31.51,31.67Z"/><path fill="#ffdec7" d="M31.51,31.67C29,34.21,27.34,36,24,36a7.46,7.46,0,0,1-2.26-.35c-.32-.21-3.25-3-3.25-3,4.1-.91,4.22-.81,4.45-1.46.09-.24.06-.14.06-3.28a7.57,7.57,0,0,0,4-.52c0,2.47-.2,3.2.78,3.43Z"/><path fill="#db5669" d="M14 41v6H12V41A1 1 0 0 1 14 41zM36 41v6H34V41A1 1 0 0 1 36 41z"/><path fill="#ffdec7" d="M42 43v2H39a2 2 0 0 1-2-2zM32 13v3c1.36 0 3 .25 3.79-1.5C35.05 12.72 33.2 13 32 13z"/><path d="M25 23.41c.35.35.54.59 1 .59a1 1 0 0 0 .71-1.71 3.56 3.56 0 0 0-5.42 0 1 1 0 0 0 1.42 1.42l.29-.3A1.48 1.48 0 0 1 25 23.41zM33.29 28.71l1 1a1 1 0 0 0 1.42-1.42l-1-1A1 1 0 0 0 33.29 28.71zM37.33 26.7a1 1 0 0 0 .26-2l-1.37-.37a1 1 0 0 0-.51 1.94A8.41 8.41 0 0 0 37.33 26.7zM36.59 23L38 22.64a1 1 0 0 0-.52-1.94l-1.37.37A1 1 0 0 0 36.59 23z"/><path d="M39.09,32.32,28,29.87V28.05a7.77,7.77,0,0,0,1-.58,4.5,4.5,0,0,0,4-7.29c0-1.42-.2-1.18.5-1.18a3.5,3.5,0,0,0,0-7c-1,0-.09.29-.82-2.37C35.36,6.92,35,4.11,35,1A1,1,0,0,0,33.45.17C27.26,4.29,21.25-.37,18,4.05A3.48,3.48,0,0,0,14,7.5v4.55a3.49,3.49,0,0,0,.5,7H15v1a9,9,0,0,0,5,8.06v1.8L8.91,32.32A5,5,0,0,0,5,37.21V47a1,1,0,0,0,2,0V44h5v3a1,1,0,0,0,2,0V41a1,1,0,0,0-2,0v1H7V37.21a3,3,0,0,1,2.35-2.93l6.83-1.52,2,1.88a8.46,8.46,0,0,0,11.72,0l2-1.88,6.83,1.52A3,3,0,0,1,41,37.21V42H36V41a1,1,0,0,0-2,0v6a1,1,0,0,0,2,0V44h5v3a1,1,0,0,0,2,0V37.21A5,5,0,0,0,39.09,32.32ZM33.5,14a1.5,1.5,0,0,1,0,3H33V14ZM22,4c5.26,0,7.71.31,11-1.28,0,2,0,4-2.13,5.86S26.63,10,22,10a3,3,0,0,1,0-6ZM16,7.5a1.51,1.51,0,0,1,1.09-1.44,4.92,4.92,0,0,0,1.22,4.28c-.58,1.15-1,1.6-2.31,1.66ZM14.5,17a1.5,1.5,0,0,1,0-3H15v3ZM17,20V13.9a4.12,4.12,0,0,0,2.94-2.36c1.35.62,2,.46,7.06.46a8,8,0,0,0,3.91-1c.18,1.17.08,9.41.07,9.51-.05.87,1,1,1,2.52a2.5,2.5,0,0,1-3,2.44,1,1,0,0,0-.81.18A7,7,0,0,1,17,20ZM28.47,33.2a6.45,6.45,0,0,1-8.94,0l-1-1,1.91-.42A2,2,0,0,0,22,29.87v-1.1a8.43,8.43,0,0,0,4,0v1.12a2,2,0,0,0,1.56,1.95l1.91.42Z"/></g></svg>